#N canvas 28 22 1280 700 10;
#X obj 239 251 tgl 15 0 empty empty empty 17 7 0 10 -1 -262144 -1 1
1;
#X obj 226 380 bng 15 250 50 0 empty empty empty 17 7 0 10 -4034 -1
-1;
#X obj 238 416 counter;
#X floatatom 238 449 5 0 0 0 - - -;
#X obj 238 538 sel 0 1 2 3 4 5 6 7;
#X obj 243 803 noteout 1;
#X obj 238 361 metro;
#X obj 226 685 bng 15 250 50 0 empty empty empty 17 7 0 10 -4034 -1
-1;
#X obj 305 153 hradio 20 1 0 3 sequences empty SEQUENCES 0 33 1 10
-159808 -262144 -159808 0;
#X obj 340 281 s tempo;
#X obj 280 282 r tempo;
#X msg 379 250 324;
#X obj 351 717 r tempo;
#X floatatom 351 764 5 0 0 0 - - -;
#X obj 351 740 * 1.1;
#X obj 235 144 knob 32 32 190 500 0 0 tempo tempo TEMPO 0 45 1 10 -4032
-4032 -1 0 1;
#X obj 326 299 bng 15 250 50 0 empty empty empty 17 7 0 10 -4032 -1
-1;
#X floatatom 280 309 5 0 0 0 - - -;
#X obj 386 757 bng 15 250 50 0 empty empty empty 17 7 0 10 -4032 -1
-1;
#X floatatom 238 668 2 0 0 0 - - -;
#X floatatom 258 668 2 0 0 0 - - -;
#X floatatom 278 668 2 0 0 0 - - -;
#X floatatom 298 668 2 0 0 0 - - -;
#X floatatom 318 668 2 0 0 0 - - -;
#X floatatom 338 668 2 0 0 0 - - -;
#X floatatom 358 668 2 0 0 0 - - -;
#X floatatom 378 668 2 0 0 0 - - -;
#X obj 394 614 unpack f f f f f f f f;
#X obj 397 537 sel 0 1 2;
#X obj 397 505 r sequences;
#X floatatom 468 522 5 0 0 0 - - -;
#X msg 409 588 52 64 63 0 75 42 71 0;
#X text 377 231 default;
#X text 236 43 Enviromental Sound ASS Player - Swatches 51 - Ossuary
[default] 50 - Flutey Lutey 52 - Persinickety Piezo 64 - Marimba Organ
103 - Next Outro [basic sec] [52 64 63 0 75 42 71 0] [tempo] [190 324]
;
#X msg 409 564 52 64 95 56 63 0 75 0;
#X msg 340 250 190;
#N canvas 2074 22 339 659 bass 0;
#X obj 41 549 osc~;
#X obj 41 626 dac~;
#X obj 36 26 tgl 15 0 empty empty empty 17 7 0 10 -1 -262144 -1 0 1
;
#X obj 92 80 r tempo;
#X obj 76 96 bng 15 250 50 0 empty empty empty 17 7 0 10 -4032 -1 -1
;
#X floatatom 100 142 5 0 0 0 - - -;
#X obj 41 581 *~ 0.2;
#X obj 257 53 knob 32 32 0 0.5 0 0 volume empty VOLUME 0 45 1 10 -262144
-258113 -1 0 1;
#X obj 89 555 r volume;
#X floatatom 89 580 5 0 0 0 - - -;
#X obj 141 572 bng 15 250 50 0 empty empty empty 17 7 0 10 -258113
-1 -1;
#X obj 56 41 dsp~;
#X obj 26 159 bng 15 250 50 0 empty empty empty 17 7 0 10 -4034 -1
-1;
#X obj 39 198 counter;
#X floatatom 39 231 5 0 0 0 - - -;
#X floatatom 40 450 2 0 0 0 - - -;
#X floatatom 60 450 2 0 0 0 - - -;
#X floatatom 80 450 2 0 0 0 - - -;
#X floatatom 100 450 2 0 0 0 - - -;
#X floatatom 120 450 2 0 0 0 - - -;
#X floatatom 140 450 2 0 0 0 - - -;
#X floatatom 160 450 2 0 0 0 - - -;
#X floatatom 180 450 2 0 0 0 - - -;
#X obj 186 52 knob 32 32 1 50 0 0 empty empty empty 0 -8 0 8 -262144
-1 -1 0 1;
#X obj 92 107 * 50;
#X floatatom 189 99 5 0 0 0 - - -;
#X obj 39 58 bng 15 250 50 0 empty empty empty 17 7 0 10 -4034 -1 -1
;
#X obj 27 339 bng 15 250 50 0 empty empty empty 17 7 0 10 -4034 -1
-1;
#X obj 39 320 sel 0 1 2 3 4 5 6 7;
#X obj 39 270 % 8;
#X obj 45 507 * 2;
#X msg 185 23 4;
#X obj 37 141 metro 500;
#X connect 0 0 6 0;
#X connect 2 0 11 0;
#X connect 2 0 32 0;
#X connect 3 0 4 0;
#X connect 3 0 24 0;
#X connect 6 0 1 0;
#X connect 6 0 1 1;
#X connect 8 0 6 1;
#X connect 8 0 9 0;
#X connect 8 0 10 0;
#X connect 11 0 26 0;
#X connect 13 0 14 0;
#X connect 14 0 29 0;
#X connect 15 0 30 0;
#X connect 16 0 30 0;
#X connect 17 0 30 0;
#X connect 18 0 30 0;
#X connect 19 0 30 0;
#X connect 20 0 30 0;
#X connect 21 0 30 0;
#X connect 22 0 30 0;
#X connect 23 0 24 1;
#X connect 23 0 25 0;
#X connect 24 0 5 0;
#X connect 24 0 32 1;
#X connect 28 0 15 0;
#X connect 28 1 16 0;
#X connect 28 2 17 0;
#X connect 28 3 18 0;
#X connect 28 4 19 0;
#X connect 28 5 20 0;
#X connect 28 6 21 0;
#X connect 28 7 22 0;
#X connect 29 0 28 0;
#X connect 30 0 0 0;
#X connect 30 0 0 1;
#X connect 31 0 23 0;
#X connect 32 0 12 0;
#X connect 32 0 13 0;
#X restore 664 51 pd bass OSC;
#X obj 613 250 tgl 15 0 empty empty empty 17 7 0 10 -1 -262144 -1 0
1;
#X obj 601 380 bng 15 250 50 0 empty empty empty 17 7 0 10 -4034 -1
-1;
#X obj 613 416 counter;
#X floatatom 613 449 5 0 0 0 - - -;
#X obj 613 361 metro;
#X obj 601 685 bng 15 250 50 0 empty empty empty 17 7 0 10 -4034 -1
-1;
#X obj 617 765 makenote 64 200;
#X obj 703 261 r tempo;
#X obj 741 717 r tempo;
#X floatatom 741 764 5 0 0 0 - - -;
#X obj 741 740 * 1.1;
#X obj 749 278 bng 15 250 50 0 empty empty empty 17 7 0 10 -4032 -1
-1;
#X obj 776 757 bng 15 250 50 0 empty empty empty 17 7 0 10 -4032 -1
-1;
#X floatatom 613 668 2 0 0 0 - - -;
#X floatatom 633 668 2 0 0 0 - - -;
#X floatatom 653 668 2 0 0 0 - - -;
#X floatatom 673 668 2 0 0 0 - - -;
#X obj 692 538 sel 0 1 2;
#X obj 693 506 r sequences;
#X floatatom 763 523 5 0 0 0 - - -;
#X msg 704 565 52 64 95 56;
#X obj 689 615 unpack f f f f;
#X obj 613 538 sel 0 1 2 3;
#X text 238 112 MUSIC;
#X text 253 234 PIANO BASE;
#X text 629 234 WATER DROPS;
#X obj 853 250 tgl 15 0 empty empty empty 17 7 0 10 -1 -262144 -1 0
1;
#X obj 841 380 bng 15 250 50 0 empty empty empty 17 7 0 10 -4034 -1
-1;
#X obj 853 416 counter;
#X floatatom 853 449 5 0 0 0 - - -;
#X obj 853 361 metro;
#X obj 841 685 bng 15 250 50 0 empty empty empty 17 7 0 10 -4034 -1
-1;
#X obj 857 765 makenote 64 200;
#X obj 966 717 r tempo;
#X floatatom 966 764 5 0 0 0 - - -;
#X obj 966 740 * 1.1;
#X floatatom 900 349 5 0 0 0 - - -;
#X obj 1001 757 bng 15 250 50 0 empty empty empty 17 7 0 10 -4032 -1
-1;
#X floatatom 853 668 2 0 0 0 - - -;
#X floatatom 873 668 2 0 0 0 - - -;
#X floatatom 893 668 2 0 0 0 - - -;
#X floatatom 913 668 2 0 0 0 - - -;
#X obj 932 538 sel 0 1 2;
#X obj 933 506 r sequences;
#X floatatom 1003 523 5 0 0 0 - - -;
#X obj 929 615 unpack f f f f;
#X obj 853 538 sel 0 1 2 3;
#X obj 858 803 noteout 3;
#X text 869 234 BASS 1;
#X obj 613 488 % 4;
#X obj 853 488 % 4;
#X obj 625 279 knob 32 32 0 127 0 0 empty empty empty 0 -8 0 8 -262144
-159808 -16662 0 1;
#X floatatom 672 314 5 0 0 0 - - -;
#X msg 944 589 66 0 63 0;
#X msg 944 565 52 64 95 56 64 75 48 46 28 35;
#X obj -356 253 dumpOSC 11112;
#X text -262 252 --> recibe los mensajes osc por el;
#X text -237 264 puerto especificado en el argumento;
#X floatatom -353 537 5 0 0 0 - - -;
#X obj -268 333 print rejected;
#X obj -355 307 OSCroute /touch;
#X obj -355 382 OSCroute /gesture;
#X floatatom -280 654 5 0 0 0 - - -;
#X floatatom -223 654 5 0 0 0 - - -;
#X floatatom -162 654 5 0 0 0 - - -;
#X floatatom -118 654 5 0 0 0 - - -;
#X floatatom -75 654 5 0 0 0 - - -;
#X obj -355 423 unpack f f f f f f f f f;
#X floatatom -29 654 5 0 0 0 - - -;
#X floatatom 16 653 5 0 0 0 - - -;
#X floatatom 61 653 5 0 0 0 - - -;
#X text -355 556 Time3;
#X text -281 685 Voltage3;
#X text -351 357 --> devuelve los mensajes que comienzan con /gesture
;
#X text -280 673 MAX;
#X text -226 671 Gesture;
#X text -223 682 Dist;
#X obj 242 765 makenote 64 200;
#X text -352 569 MAX;
#X floatatom -355 656 5 0 0 0 - - -;
#X obj -355 631 *;
#X floatatom 17 733 5 0 0 0 - - -;
#X obj 16 703 *;
#X floatatom 31 679 5 0 0 0 - - -;
#X obj 238 488 % 8;
#X msg -337 605 4;
#X obj 897 290 r tempo;
#X obj 943 307 bng 15 250 50 0 empty empty empty 17 7 0 10 -4032 -1
-1;
#X floatatom 297 369 5 0 0 0 - - -;
#X floatatom 667 344 5 0 0 0 - - -;
#X obj 618 803 noteout 4;
#X obj 625 323 / 3.5;
#X msg 704 589 52 64 63 20;
#X obj 900 319 / 9;
#X obj 295 341 * 0.9;
#X obj -287 785 +~;
#X obj -294 882 dac~;
#X obj -255 750 -~ 0.2;
#X obj -290 815 bp~ 770 3;
#X obj -340 749 -~ 0.1;
#X obj -255 717 phasor~ 50;
#X obj -344 715 phasor~ 120;
#X obj -255 864 tgl 15 0 empty empty empty 17 7 0 10 -1 -262144 -1
0 1;
#X obj -189 693 / 2;
#X obj -310 842 *~ 0.08;
#X connect 0 0 6 0;
#X connect 2 0 3 0;
#X connect 3 0 121 0;
#X connect 4 0 19 0;
#X connect 4 1 20 0;
#X connect 4 2 21 0;
#X connect 4 3 22 0;
#X connect 4 4 23 0;
#X connect 4 5 24 0;
#X connect 4 6 25 0;
#X connect 4 7 26 0;
#X connect 6 0 2 0;
#X connect 6 0 1 0;
#X connect 10 0 16 0;
#X connect 10 0 17 0;
#X connect 11 0 9 0;
#X connect 12 0 14 0;
#X connect 14 0 13 0;
#X connect 14 0 18 0;
#X connect 14 0 114 2;
#X connect 19 0 7 0;
#X connect 19 0 114 0;
#X connect 19 0 114 1;
#X connect 20 0 114 0;
#X connect 20 0 114 1;
#X connect 21 0 114 0;
#X connect 21 0 114 1;
#X connect 22 0 114 0;
#X connect 22 0 114 1;
#X connect 23 0 114 0;
#X connect 23 0 114 1;
#X connect 24 0 114 0;
#X connect 24 0 114 1;
#X connect 25 0 114 0;
#X connect 25 0 114 1;
#X connect 26 0 114 0;
#X connect 26 0 114 1;
#X connect 27 0 19 0;
#X connect 27 1 20 0;
#X connect 27 2 21 0;
#X connect 27 3 22 0;
#X connect 27 4 23 0;
#X connect 27 5 24 0;
#X connect 27 6 25 0;
#X connect 27 7 26 0;
#X connect 28 0 31 0;
#X connect 28 1 34 0;
#X connect 29 0 28 0;
#X connect 29 0 30 0;
#X connect 31 0 27 0;
#X connect 34 0 27 0;
#X connect 35 0 9 0;
#X connect 37 0 41 0;
#X connect 39 0 40 0;
#X connect 40 0 86 0;
#X connect 41 0 39 0;
#X connect 41 0 38 0;
#X connect 43 0 127 0;
#X connect 43 1 127 1;
#X connect 44 0 48 0;
#X connect 44 0 88 0;
#X connect 45 0 47 0;
#X connect 47 0 46 0;
#X connect 47 0 49 0;
#X connect 47 0 43 2;
#X connect 50 0 43 0;
#X connect 50 0 42 0;
#X connect 50 0 43 1;
#X connect 51 0 43 0;
#X connect 51 0 43 1;
#X connect 52 0 43 0;
#X connect 52 0 43 1;
#X connect 53 0 43 0;
#X connect 53 0 43 1;
#X connect 54 0 129 0;
#X connect 54 1 57 0;
#X connect 55 0 54 0;
#X connect 55 0 56 0;
#X connect 57 0 58 0;
#X connect 58 0 50 0;
#X connect 58 1 51 0;
#X connect 58 2 52 0;
#X connect 58 3 53 0;
#X connect 59 0 50 0;
#X connect 59 1 51 0;
#X connect 59 2 52 0;
#X connect 59 3 53 0;
#X connect 63 0 67 0;
#X connect 65 0 66 0;
#X connect 66 0 87 0;
#X connect 67 0 65 0;
#X connect 67 0 64 0;
#X connect 69 0 84 0;
#X connect 69 1 84 1;
#X connect 70 0 72 0;
#X connect 72 0 69 2;
#X connect 72 0 71 0;
#X connect 72 0 74 0;
#X connect 75 0 69 0;
#X connect 75 0 68 0;
#X connect 75 0 69 1;
#X connect 76 0 69 0;
#X connect 76 0 69 1;
#X connect 77 0 69 0;
#X connect 77 0 69 1;
#X connect 78 0 69 0;
#X connect 78 0 69 1;
#X connect 79 0 90 0;
#X connect 79 1 91 0;
#X connect 80 0 79 0;
#X connect 80 0 81 0;
#X connect 82 0 75 0;
#X connect 82 1 76 0;
#X connect 82 2 77 0;
#X connect 82 3 78 0;
#X connect 83 0 75 0;
#X connect 83 1 76 0;
#X connect 83 2 77 0;
#X connect 83 3 78 0;
#X connect 86 0 59 0;
#X connect 87 0 83 0;
#X connect 88 0 89 0;
#X connect 88 0 128 0;
#X connect 90 0 82 0;
#X connect 91 0 82 0;
#X connect 92 0 97 0;
#X connect 95 0 117 0;
#X connect 97 0 98 0;
#X connect 97 1 96 0;
#X connect 98 0 104 0;
#X connect 99 0 131 0;
#X connect 99 0 138 0;
#X connect 99 0 137 0;
#X connect 99 0 138 1;
#X connect 100 0 140 0;
#X connect 104 0 95 0;
#X connect 104 1 99 0;
#X connect 104 2 100 0;
#X connect 104 3 101 0;
#X connect 104 4 102 0;
#X connect 104 5 103 0;
#X connect 104 6 105 0;
#X connect 104 7 106 0;
#X connect 104 8 107 0;
#X connect 105 0 128 0;
#X connect 106 0 119 0;
#X connect 107 0 130 0;
#X connect 114 0 5 0;
#X connect 114 1 5 1;
#X connect 117 0 116 0;
#X connect 119 0 118 0;
#X connect 120 0 119 1;
#X connect 121 0 4 0;
#X connect 122 0 117 1;
#X connect 123 0 124 0;
#X connect 125 0 6 1;
#X connect 126 0 41 1;
#X connect 128 0 126 0;
#X connect 129 0 58 0;
#X connect 130 0 67 0;
#X connect 130 0 73 0;
#X connect 131 0 125 0;
#X connect 132 0 135 0;
#X connect 134 0 132 1;
#X connect 135 0 141 0;
#X connect 136 0 132 0;
#X connect 137 0 134 0;
#X connect 138 0 136 0;
#X connect 140 0 137 1;
